<svg enable-background="new 0 0 128 128" viewBox="0 0 128 128" xmlns="http://www.w3.org/2000/svg" xmlns:xlink="http://www.w3.org/1999/xlink"><linearGradient id="a" gradientTransform="matrix(1.014 .0779 -.073 .9502 5.2752 -3.2297)" gradientUnits="userSpaceOnUse" x1="66.768" x2="66.768" y1="19.597" y2="109.34"><stop offset=".00697" stop-color="#b4b4b5"/><stop offset=".3655" stop-color="#b2b2b3"/><stop offset=".569" stop-color="#aaa9aa"/><stop offset=".7338" stop-color="#9c9c9d"/><stop offset=".8768" stop-color="#898889"/><stop offset="1" stop-color="#717071"/></linearGradient><linearGradient id="b" gradientTransform="matrix(1.0143 -.0736 .069 .9505 -5.5652 5.9519)" gradientUnits="userSpaceOnUse" x1="62.139" x2="62.139" y1="21.91" y2="111.65"><stop offset=".0117" stop-color="#eeeeef"/><stop offset=".3072" stop-color="#ececed"/><stop offset=".475" stop-color="#e4e3e4"/><stop offset=".6108" stop-color="#d6d6d7"/><stop offset=".7295" stop-color="#c2c2c3"/><stop offset=".8369" stop-color="#a9a8a9"/><stop offset=".9349" stop-color="#8a898a"/><stop offset="1" stop-color="#717071"/></linearGradient><linearGradient id="c" gradientUnits="userSpaceOnUse" x1="63.978" x2="63.978" y1="16.623" y2="106.36"><stop offset=".005936" stop-color="#eeeeef"/><stop offset=".3475" stop-color="#ececed"/><stop offset=".5414" stop-color="#e3e3e4"/><stop offset=".6982" stop-color="#d6d6d7"/><stop offset=".8353" stop-color="#c2c2c3"/><stop offset=".9583" stop-color="#a8a8a9"/><stop offset="1" stop-color="#9e9e9f"/></linearGradient><path d="m115.64 109.85-101.3-7.78c-1.65-.13-2.89-1.57-2.76-3.22l6.13-79.77c.13-1.65 1.57-2.89 3.22-2.76l101.3 7.78c1.65.13 2.89 1.57 2.76 3.22l-6.13 79.77c-.13 1.65-1.57 2.88-3.22 2.76z" fill="url(#a)"/><path d="m115.84 103.92-101.33 7.36c-1.65.12-3.09-1.12-3.21-2.77l-5.8-79.81c-.12-1.65 1.12-3.09 2.77-3.21l101.33-7.36c1.65-.12 3.09 1.12 3.21 2.77l5.79 79.8c.13 1.66-1.11 3.1-2.76 3.22z" fill="url(#b)"/><path d="m113.88 106.46h-99.8c-1.66 0-3-1.34-3-3v-84.25c0-1.66 1.34-3 3-3h99.8c1.66 0 3 1.34 3 3v84.25c0 1.66-1.34 3-3 3z" fill="url(#c)"/><path d="m114.28 19.73c.07 0 .12.05.12.12v4.35c0 1.57 1.21 2.87 2.77 2.99l5.22.4c.02 0 .05 0 .08.04s.03.07.03.09l-6.11 79.53c-.01.08-.07.11-.13.11l-39.48-3.03c-.08-.01-.15-.01-.23-.01-.07 0-.14 0-.22.01l-61.42 4.46c-.04 0-.11-.04-.12-.11l-5.76-79.56c0-.07.05-.12.11-.13l2.68-.19c1.57-.11 2.78-1.42 2.78-2.99v-5.95c0-.07.05-.12.12-.12h99.56m0-3.01h-99.56c-1.72 0-3.12 1.4-3.12 3.12v5.95l-2.68.2c-1.72.12-3.01 1.62-2.89 3.34l5.77 79.56c.12 1.64 1.49 2.89 3.11 2.89.08 0 .15 0 .23-.01l61.41-4.46 39.48 3.03c.08.01.16.01.24.01 1.61 0 2.98-1.24 3.11-2.88l6.11-79.53c.13-1.72-1.15-3.22-2.87-3.35l-5.22-.4v-4.35c0-1.72-1.4-3.12-3.12-3.12z" fill="#424242" opacity=".2"/><path d="m36.56 44h-16.26c-.55 0-1-.45-1-1v-12.92c0-.55.45-1 1-1h16.26c.55 0 1 .45 1 1v12.92c0 .55-.44 1-1 1z" fill="#757575"/><path d="m57.94 44h-16.27c-.55 0-1-.45-1-1v-12.92c0-.55.45-1 1-1h16.26c.55 0 1 .45 1 1v12.92c.01.55-.44 1-.99 1z" fill="#757575"/><path d="m79.31 44h-16.27c-.55 0-1-.45-1-1v-12.92c0-.55.45-1 1-1h16.26c.55 0 1 .45 1 1v12.92c.01.55-.44 1-.99 1z" fill="#757575"/><path d="m107.13 51.99h-85.85c-1.09 0-1.98-.89-1.98-1.98v-.16c0-1.09.89-1.98 1.98-1.98h85.85c1.09 0 1.98.89 1.98 1.98v.16c0 1.1-.89 1.98-1.98 1.98z" fill="#b4b4b5"/><path d="m44.6 93.29h-23.3c-1.1 0-2-.9-2-2v-32.66c0-1.1.9-2 2-2h23.3c1.1 0 2 .9 2 2v32.66c0 1.11-.89 2-2 2z" fill="#757575"/><g fill="none" stroke-linecap="round" stroke-linejoin="round" stroke-miterlimit="10" stroke-width="1.9813"><path d="m50.72 58.95h56.41" stroke="#757575"/><path d="m50.72 67.19h56.41" stroke="#757575"/><path d="m84.98 31.9h23.7" stroke="#b4b4b5"/><path d="m84.98 40.15h23.7" stroke="#b4b4b5"/><path d="m50.72 75.43h56.41" stroke="#757575"/><path d="m50.72 83.68h56.41" stroke="#757575"/><path d="m50.72 91.92h56.41" stroke="#757575"/></g></svg>